<svg width="302" height="64" viewBox="0 0 302 64" fill="none" xmlns="http://www.w3.org/2000/svg">
<path d="M108.362 47.1059C97.9981 47.1059 91.746 40.9377 91.746 32.0002C91.746 23.1885 98.04 16.8945 108.404 16.8945C117.803 16.8945 122.881 21.4262 123.3 27.3846H117.216C116.922 24.9928 114.824 22.0136 108.74 22.0136H108.069C101.774 22.0136 97.5785 25.6642 97.5785 32.0002C97.5785 38.3362 101.858 41.9867 108.069 41.9867H108.74C114.866 41.9867 118.181 39.1334 118.181 36.7417V36.406H108.53V31.2869H119.733C122.293 31.2869 123.72 32.7555 123.72 35.3151V46.6863H118.181V43.4134C117.048 44.8401 114.069 47.1059 108.362 47.1059Z" fill="#F2F7F7"/>
<path d="M133.009 46.6857H127.218V17.3135H133.009V46.6857Z" fill="#F2F7F7"/>
<path d="M153.544 46.6857H147.754V22.4326H135.921V17.3135H165.377V22.4326H153.544V46.6857Z" fill="#F2F7F7"/>
<path d="M185.484 46.6857H168.28V17.3135H184.981C190.226 17.3135 194.254 20.2507 194.254 25.0761C194.254 28.433 192.114 30.8247 189.596 31.7478C192.617 32.4192 194.967 34.8949 194.967 38.7132C194.967 43.5806 190.729 46.6857 185.484 46.6857ZM174.071 22.4326V29.2302H184.351C186.911 29.2302 188.421 28.0553 188.421 25.7056C188.421 23.7754 186.911 22.4326 184.351 22.4326H174.071ZM174.071 34.3494V41.5665H184.645C187.414 41.5665 189.135 40.1399 189.135 37.916C189.135 35.5243 187.414 34.3494 184.645 34.3494H174.071Z" fill="#F2F7F7"/>
<path d="M214.115 47.1059C204.59 47.1059 197.456 41.3993 197.456 32.0002C197.456 22.6011 204.59 16.8945 214.115 16.8945C223.639 16.8945 230.731 22.6011 230.731 32.0002C230.731 41.3993 223.639 47.1059 214.115 47.1059ZM213.779 41.9867H214.45C220.115 41.9867 224.898 38.3362 224.898 32.0002C224.898 25.6642 220.115 22.0136 214.45 22.0136H213.779C208.114 22.0136 203.289 25.6642 203.289 32.0002C203.289 38.3362 208.114 41.9867 213.779 41.9867Z" fill="#F2F7F7"/>
<path d="M249.561 47.1059C240.036 47.1059 232.903 41.3993 232.903 32.0002C232.903 22.6011 240.036 16.8945 249.561 16.8945C259.086 16.8945 266.177 22.6011 266.177 32.0002C266.177 41.3993 259.086 47.1059 249.561 47.1059ZM249.225 41.9867H249.897C255.561 41.9867 260.345 38.3362 260.345 32.0002C260.345 25.6642 255.561 22.0136 249.897 22.0136H249.225C243.561 22.0136 238.735 25.6642 238.735 32.0002C238.735 38.3362 243.561 41.9867 249.225 41.9867Z" fill="#F2F7F7"/>
<path d="M298.778 46.6857H291.141L279.14 33.4262L274.944 36.9929V46.6857H269.154V17.3135H274.944V30.2792L290.092 17.3135H298.106L283.42 29.8177L298.778 46.6857Z" fill="#F2F7F7"/>
<path d="M28.33 33.6494C31.4768 35.4656 33.0502 36.3737 34.7781 36.3752C36.5061 36.3767 38.081 35.4714 41.231 33.6607L61.3102 22.1186C62.2167 21.5975 62.7755 20.6317 62.7755 19.5861C62.7755 18.5405 62.2167 17.5747 61.3102 17.0537L41.2237 5.50736C38.0772 3.69862 36.5039 2.79425 34.7776 2.79492C33.0514 2.79559 31.4788 3.70119 28.3336 5.51238L11.0659 15.4563C10.938 15.53 10.874 15.5668 10.8143 15.6017C4.91579 19.0547 1.27151 25.3587 1.22278 32.1934C1.22229 32.2625 1.22229 32.3363 1.22229 32.484C1.22229 32.6315 1.22229 32.7053 1.22278 32.7743C1.2714 39.6013 4.90756 45.8994 10.7956 49.3551C10.8551 49.3901 10.919 49.4269 11.0467 49.5007L21.8632 55.7458C28.1659 59.3848 31.3172 61.2043 34.7779 61.2054C38.2386 61.2066 41.3912 59.3892 47.6963 55.7545L59.1146 49.1722C62.2717 47.3522 63.8502 46.4422 64.717 44.942C65.5838 43.4418 65.5838 41.6198 65.5838 37.9756V30.9358C65.5838 29.9249 65.0363 28.9932 64.1531 28.5013C63.2984 28.0253 62.2567 28.0324 61.4085 28.5199L37.9953 41.9785C36.4245 42.8815 35.639 43.333 34.7771 43.3333C33.9152 43.3335 33.1295 42.8825 31.558 41.9805L15.7115 32.8842C14.9177 32.4285 14.5208 32.2007 14.202 32.1595C13.4752 32.0658 12.7764 32.4729 12.4995 33.1514C12.3781 33.449 12.3806 33.9066 12.3855 34.8219C12.3891 35.4957 12.3909 35.8326 12.4539 36.1425C12.5949 36.8365 12.96 37.4649 13.4931 37.9311C13.7311 38.1392 14.0229 38.3077 14.6065 38.6445L31.5491 48.4231C33.1246 49.3324 33.9124 49.7871 34.7774 49.7873C35.6424 49.7875 36.4304 49.3333 38.0064 48.4248L58.773 36.4542C59.3114 36.1438 59.5805 35.9887 59.7823 36.1053C59.9842 36.2219 59.9842 36.5326 59.9842 37.154V40.347C59.9842 41.2581 59.9842 41.7136 59.7674 42.0887C59.5507 42.4637 59.1561 42.6912 58.3668 43.1462L41.2383 53.0197C38.085 54.8374 36.5084 55.7462 34.7777 55.7454C33.047 55.7446 31.4712 54.8344 28.3196 53.0138L12.2945 43.7567C12.2436 43.7273 12.2182 43.7126 12.1944 43.6988C8.83433 41.7353 6.76104 38.1433 6.74159 34.2517C6.74146 34.2242 6.74146 34.1948 6.74146 34.1361V31.205C6.74146 29.0566 7.88565 27.0709 9.74433 25.9935C11.3868 25.0416 13.4126 25.0397 15.0568 25.9886L28.33 33.6494Z" fill="#F2F7F7"/>
</svg>
