<svg width="1025" height="240" viewBox="0 0 1025 240" fill="none" xmlns="http://www.w3.org/2000/svg">
<g clip-path="url(#clip0_58_15)">
<path fill-rule="evenodd" clip-rule="evenodd" d="M120 0C186.274 0 240 53.7258 240 120C240 186.274 186.274 240 120 240C53.7258 240 0 186.274 0 120C0 53.7258 53.7258 0 120 0ZM136 59.9996H78V180H102V144.001H136C159.196 144.001 178 125.196 178 102C178 78.8036 159.196 59.9996 136 59.9996ZM136 83.9996C145.941 83.9996 154 92.0586 154 102C154 111.941 145.941 120 136 120L102 120.001V84.0006L136 83.9996Z" fill="white"/>
<path fill-rule="evenodd" clip-rule="evenodd" d="M320 160V80H356.753C373.839 80 383.144 91.546 383.144 105.332C383.144 118.998 373.724 130.543 356.753 130.543H336.731V160H320ZM426.43 100.266V114.872C425.365 114.637 424.07 114.522 422.305 114.522C417.355 114.522 410.754 117.347 408.279 121.003V160H393.323V101.677H408.279V109.337C412.404 104.387 419.36 100.266 426.43 100.266ZM462.146 100.266C480.998 100.266 492.308 113.932 492.308 130.073C492.308 146.214 480.998 160 462.146 160C443.411 160 432.1 146.214 432.1 130.073C432.1 113.932 443.411 100.266 462.146 100.266ZM354.402 94.726C360.993 94.726 366.068 98.731 366.068 105.332C366.068 111.812 360.993 115.817 354.402 115.817H336.731V94.726H354.402ZM557.736 80V160H542.655V151.28C538.175 156.935 532.054 160 525.099 160C510.843 160 499.887 149.159 499.887 130.073C499.887 111.577 510.613 100.266 525.099 100.266C531.814 100.266 538.175 103.091 542.655 108.982V80H557.736ZM462.146 113.577C471.567 113.577 476.757 121.238 476.757 130.073C476.757 139.029 471.567 146.684 462.146 146.684C452.831 146.684 447.651 139.029 447.651 130.073C447.651 121.238 452.831 113.577 462.146 113.577ZM587.581 101.677V136.199C587.581 144.094 591.706 146.684 598.067 146.684C603.842 146.684 608.437 143.504 611.028 140.204V101.677H625.993V160H611.028V151.399C607.142 155.64 600.312 160 591.006 160C578.515 160 572.625 153.165 572.625 142.089V101.677H587.581ZM717.726 86.125V101.677H729.267V114.757H717.726V140.324C717.726 143.974 719.607 146.684 722.907 146.684C725.142 146.684 727.272 145.859 728.087 144.919L731.272 156.345C729.037 158.35 725.027 160 718.782 160C708.296 160 702.761 154.58 702.761 144.329V114.757H693.34V101.677H702.761V86.125H717.726ZM787.994 80V110.867H825.111V80H841.957V160H825.111V125.478H787.994V160H771.272V80H787.994ZM872.052 101.677V136.199C872.052 144.094 876.177 146.684 882.537 146.684C888.313 146.684 892.908 143.504 895.498 140.204V101.677H910.464V160H895.498V151.399C891.613 155.64 884.782 160 875.477 160C862.986 160 857.096 153.165 857.096 142.089V101.677H872.052ZM1011.63 86.125V101.677H1023.17V114.757H1011.63V140.324C1011.63 143.974 1013.51 146.684 1016.81 146.684C1019.04 146.684 1021.17 145.859 1022 144.919L1025.17 156.345C1022.94 158.35 1018.93 160 1012.68 160C1002.2 160 996.661 154.58 996.661 144.329V114.757H987.241V101.677H996.661V86.125H1011.63ZM667.389 100.266C679.055 100.266 686.125 105.332 689.896 110.517L680.11 119.703C677.405 115.697 673.28 113.577 668.099 113.577C659.024 113.577 652.663 120.177 652.663 130.073C652.663 139.969 659.024 146.684 668.099 146.684C673.28 146.684 677.405 144.329 680.11 140.439L689.896 149.63C686.125 154.815 679.055 160 667.389 160C649.948 160 637.228 147.629 637.228 130.073C637.228 112.637 649.948 100.266 667.389 100.266ZM960.216 100.266C972.822 100.266 978.827 107.332 978.827 118.407V160H963.746V124.183C963.746 116.287 959.631 113.577 953.261 113.577C947.37 113.577 942.9 116.877 940.3 120.177V160H925.344V101.677H940.3V108.982C943.955 104.742 951.025 100.266 960.216 100.266ZM529.809 113.577C534.76 113.577 540.18 116.287 542.655 120.058V140.204C540.18 143.974 534.76 146.684 529.809 146.684C521.214 146.684 515.323 139.969 515.323 130.073C515.323 120.293 521.214 113.577 529.809 113.577Z" fill="white"/>
</g>
<defs>
<clipPath id="clip0_58_15">
<rect width="1025" height="240" fill="white"/>
</clipPath>
</defs>
</svg>
