<svg width="109" height="48" viewBox="0 0 109 48" fill="none" xmlns="http://www.w3.org/2000/svg">
<path d="M95.6 23.6998C95.6 25.5998 94.7 26.8998 93.4 26.8998C92.4 26.8998 91.8 25.9998 91.8 24.6998C91.8 22.8998 92.7 21.4998 93.9 21.4998C94.9 21.3998 95.6 22.2998 95.6 23.6998ZM70 21.3998C68.8 21.3998 67.9 22.6998 67.9 24.5998C67.9 25.9998 68.5 26.8998 69.6 26.8998C70.9 26.8998 71.7 25.5998 71.7 23.6998C71.7 22.2998 71 21.3998 70 21.3998ZM109 23.4998C109 32.4998 102.3 38.7998 92.7 38.7998C87.9 38.7998 83.9 37.1998 81.3 34.2998C79 37.0998 75.8 38.6998 72.2 38.6998C69.8 38.6998 67.6 37.8998 65.9 36.4998C64.3 37.8998 62.1 38.6998 59.4 38.6998C57.6 38.6998 56.2 38.2998 55.2 37.5998C54.2 38.3998 52.9 38.6998 51.3 38.6998C48.8 38.6998 46.4 37.8998 44.8 36.4998C43 37.8998 40.6 38.6998 37.9 38.6998C34.4 38.6998 31.6 37.3998 29.8 35.0998C29 38.6998 27.5 41.3998 25.2 43.4998C22.1 46.3998 17.6 47.8998 12.3 47.8998C9.80004 47.8998 7.00004 47.4998 4.60004 46.7998C2.00004 45.9998 0.600042 43.9998 0.900042 41.3998L1.30004 38.1998C1.50004 36.6998 2.30004 35.4998 3.40004 34.8998C3.40004 34.7998 3.30004 34.7998 3.20004 34.6998C1.30004 32.2998 0.700043 29.3998 1.20004 24.6998L2.20004 15.0998C2.50004 12.5998 4.30004 10.9998 6.90004 10.9998H14C15.2 10.9998 16.3 11.3998 17.1 11.9998C17.9 11.3998 18.9 10.9998 20 10.9998H27.4C28.6 10.9998 29.7 11.3998 30.5 12.0998C31.3 11.3998 32.4 10.9998 33.6 10.9998H40.7C41.9 10.9998 43 11.3998 43.8 11.9998C44.6 11.3998 45.6 10.9998 46.7 10.9998H54.1C54.8 10.9998 55.5 11.0998 56 11.3998L56.6 4.99981C56.9 2.49981 58.7 0.799805 61.3 0.799805H68.4C71.5 0.799805 73.3 2.79981 73 5.89981L72.5 10.6998C73.2 10.5998 73.9 10.4998 74.6 10.4998C78.1 10.4998 81 11.9998 82.8 14.4998C85.7 11.7998 89.8 10.2998 94.4 10.2998C103.2 10.3998 109 15.5998 109 23.4998ZM27.5 13.7998H20.1C19.3 13.7998 18.5 14.3998 18.4 15.2998L17.4 25.5998C17.3 26.4998 16.8 27.0998 16.1 27.0998C15.4 27.0998 14.9 26.5998 15 25.5998L15.9 15.9998C16 14.6998 15.5 13.8998 14.2 13.8998H7.00004C6.00004 13.8998 5.20004 14.5998 5.10004 15.5998L4.10004 25.1998C3.70004 29.3998 4.30004 31.6998 5.50004 33.1998C6.80004 34.7998 8.80004 35.6998 11.3 35.6998C14.1 35.6998 16.2 34.5998 17.1 32.9998C17.2 32.7998 17.3 32.6998 17.4 32.6998C17.5 32.6998 17.6 32.7998 17.5 33.0998L17.4 33.5998C16.9 36.2998 14.5 37.6998 10.8 37.6998C9.70004 37.6998 8.30004 37.4998 7.00004 37.1998C6.30004 36.9998 6.00004 36.9998 5.80004 36.9998C4.80004 36.9998 4.20004 37.5998 4.10004 38.5998L3.70004 41.7998C3.50004 43.1998 4.20004 43.9998 5.40004 44.3998C7.60004 44.9998 10 45.3998 12.3 45.3998C17 45.3998 20.7 44.0998 23.2 41.6998C25.6 39.4998 27.1 36.1998 27.6 30.7998L29 15.8998C29.4 14.4998 28.6 13.7998 27.5 13.7998ZM54.1 13.7998H46.7C45.9 13.7998 45.1 14.3998 45 15.2998L44 25.5998C43.9 26.4998 43.4 27.0998 42.7 27.0998C42 27.0998 41.5 26.5998 41.6 25.5998L42.5 15.9998C42.6 14.6998 42.1 13.8998 40.8 13.8998H33.7C32.7 13.8998 31.9 14.5998 31.8 15.5998L30.7 26.4998C30.4 29.3998 30.8 31.3998 31.7 32.9998C32.9 35.0998 35.1 36.1998 38.1 36.1998C41.5 36.1998 44 34.5998 45.2 32.0998C45.3 31.8998 45.4 31.7998 45.5 31.7998C45.6 31.7998 45.7 31.8998 45.7 32.0998C45.7 32.5998 45.9 33.2998 46.2 33.7998C47.1 35.2998 49.3 36.1998 51.6 36.1998C53.3 36.1998 54.1 35.7998 54.2 34.4998L56 15.8998C56 14.4998 55.3 13.7998 54.1 13.7998ZM106.2 23.4998C106.2 17.0998 101.7 13.0998 94.6 13.0998C89 13.0998 84.8 15.5998 82.6 19.5998C82.5 19.7998 82.4 19.8998 82.3 19.8998C82.2 19.8998 82.1 19.7998 82 19.4998C81.1 15.5998 78.5 13.1998 74.7 13.1998C72.7 13.1998 70.9 13.7998 69.9 14.4998C69.7 14.5998 69.6 14.6998 69.5 14.6998C69.4 14.6998 69.3 14.5998 69.3 14.3998L70.2 5.5998C70.3 4.2998 69.7 3.49981 68.5 3.49981H61.4C60.4 3.49981 59.6 4.19981 59.5 5.19981L56.6 34.0998C56.5 35.3998 57.1 35.9998 59.5 35.9998C62.6 35.9998 64.8 34.5998 65.6 31.9998C65.7 31.6998 65.7 31.6998 65.9 31.6998C66 31.6998 66.1 31.7998 66.2 31.9998C67.1 34.2998 69.3 35.8998 72.4 35.8998C76.4 35.8998 79.5 33.0998 81.2 29.1998C81.3 28.8998 81.4 28.7998 81.5 28.7998C81.6 28.7998 81.7 28.8998 81.7 29.0998C83.1 33.3998 87.1 36.0998 92.8 36.0998C100.7 36.1998 106.2 30.9998 106.2 23.4998Z" fill="#151400"/>
</svg>
