<svg width="512" height="512" viewBox="0 0 512 512" fill="none" xmlns="http://www.w3.org/2000/svg">
<rect width="512" height="512" fill="#161616"/>
<path d="M164.857 148.286H181.429V164.857H164.857V148.286ZM181.429 131.714H198V148.286H181.429V131.714ZM198 131.714H214.572V148.286H198V131.714ZM214.572 131.714H231.143V148.286H214.572V131.714ZM231.143 131.714H247.715V148.286H231.143V131.714ZM247.715 131.714H264.286V148.286H247.715V131.714ZM247.715 148.286H264.286V164.857H247.715V148.286ZM231.143 148.286H247.715V164.857H231.143V148.286ZM264.286 148.286H280.857V164.857H264.286V148.286ZM280.857 148.286H297.429V164.857H280.857V148.286ZM297.429 131.714H314V148.286H297.429V131.714ZM330.572 131.714H347.143V148.286H330.572V131.714ZM314 148.286H330.572V164.857H314V148.286ZM314 164.857H330.572V181.429H314V164.857ZM297.429 164.857H314V181.429H297.429V164.857ZM297.429 181.429H314V198H297.429V181.429ZM314 181.429H330.572V198H314V181.429ZM314 198H330.572V214.571H314V198ZM314 214.571H330.572V231.143H314V214.571ZM297.429 214.571H314V231.143H297.429V214.571ZM297.429 198H314V214.571H297.429V198ZM264.286 181.429H280.857V198H264.286V181.429ZM264.286 198H280.857V214.571H264.286V198ZM264.286 214.571H280.857V231.143H264.286V214.571ZM264.286 231.143H280.857V247.714H264.286V231.143ZM264.286 247.714H280.857V264.286H264.286V247.714ZM264.286 264.286H280.857V280.857H264.286V264.286ZM297.429 231.143H314V247.714H297.429V231.143ZM314 231.143H330.572V247.714H314V231.143ZM314 247.714H330.572V264.286H314V247.714ZM297.429 247.714H314V264.286H297.429V247.714ZM297.429 264.286H314V280.857H297.429V264.286ZM314 264.286H330.572V280.857H314V264.286ZM247.715 214.571H264.286V231.143H247.715V214.571ZM231.143 214.571H247.715V231.143H231.143V214.571ZM247.715 247.714H264.286V264.286H247.715V247.714ZM231.143 247.714H247.715V264.286H231.143V247.714ZM264.286 330.571H280.857V347.143H264.286V330.571ZM247.715 347.143H264.286V363.714H247.715V347.143ZM231.143 347.143H247.715V363.714H231.143V347.143ZM214.572 347.143H231.143V363.714H214.572V347.143ZM198 347.143H214.572V363.714H198V347.143ZM181.429 363.714H198V380.286H181.429V363.714ZM231.143 363.714H247.715V380.286H231.143V363.714ZM247.715 363.714H264.286V380.286H247.715V363.714ZM264.286 363.714H280.857V380.286H264.286V363.714ZM280.857 363.714H297.429V380.286H280.857V363.714ZM297.429 347.143H314V363.714H297.429V347.143ZM297.429 330.571H314V347.143H297.429V330.571ZM314 330.571H330.572V347.143H314V330.571ZM264.286 314H280.857V330.571H264.286V314ZM264.286 297.429H280.857V314H264.286V297.429ZM264.286 280.857H280.857V297.429H264.286V280.857ZM297.429 280.857H314V297.429H297.429V280.857ZM297.429 297.429H314V314H297.429V297.429ZM297.429 314H314V330.571H297.429V314ZM314 314H330.572V330.571H314V314ZM314 297.429H330.572V314H314V297.429ZM314 280.857H330.572V297.429H314V280.857Z" fill="#8D8DF1"/>
<rect x="30" y="30" width="17" height="17" fill="#8D8DF1"/>
<rect x="465" y="30" width="17" height="17" fill="#8D8DF1"/>
<rect x="465" y="465" width="17" height="17" fill="#8D8DF1"/>
<rect x="30" y="465" width="17" height="17" fill="#8D8DF1"/>
</svg>
